<?xml version="1.0" encoding="UTF-8" standalone="no"?>
<!DOCTYPE svg PUBLIC "-//W3C//DTD SVG 1.1//EN" "http://www.w3.org/Graphics/SVG/1.1/DTD/svg11.dtd">
<svg width="100%" height="100%" viewBox="0 0 252 120" version="1.1" xmlns="http://www.w3.org/2000/svg" xmlns:xlink="http://www.w3.org/1999/xlink" xml:space="preserve" xmlns:serif="http://www.serif.com/" style="fill-rule:evenodd;clip-rule:evenodd;stroke-linejoin:round;stroke-miterlimit:1.41421;">
    <g transform="matrix(1,0,0,1,-1258,-128)">
        <g id="Owncloud-Logo" serif:id="Owncloud Logo" transform="matrix(1.01574,0,0,1.17999,-20.2978,-23.4068)">
            <rect x="1258.49" y="128.312" width="248.096" height="101.696" style="fill:none;"/>
            <clipPath id="_clip1">
                <rect x="1258.49" y="128.312" width="248.096" height="101.696"/>
            </clipPath>
            <g clip-path="url(#_clip1)">
                <g id="Logo" transform="matrix(0.0984507,0,0,0.0847467,1388.45,128.336)">
                    <rect x="0" y="0" width="1200" height="1200" style="fill:none;"/>
                    <g id="white" transform="matrix(84.4555,0,0,84.4555,-22644.6,-41054.2)">
                        <path d="M274.993,488.559C274.993,488.444 275.005,488.331 275.029,488.222C275.053,488.113 275.093,488.016 275.148,487.931C275.202,487.846 275.275,487.777 275.366,487.726C275.457,487.674 275.568,487.648 275.698,487.648C275.832,487.648 275.946,487.673 276.04,487.723C276.134,487.774 276.211,487.84 276.27,487.921C276.329,488.003 276.372,488.098 276.4,488.206C276.427,488.314 276.44,488.425 276.44,488.541C276.44,488.65 276.428,488.758 276.402,488.864C276.376,488.97 276.334,489.065 276.277,489.148C276.219,489.232 276.145,489.299 276.054,489.351C275.962,489.403 275.852,489.428 275.721,489.428C275.597,489.428 275.488,489.404 275.396,489.356C275.303,489.307 275.227,489.242 275.168,489.16C275.109,489.078 275.065,488.985 275.036,488.88C275.007,488.775 274.993,488.668 274.993,488.559ZM276.814,489.715L276.814,486.465L276.427,486.465L276.427,487.676L276.418,487.676C276.375,487.606 276.323,487.547 276.261,487.5C276.198,487.453 276.132,487.415 276.063,487.387C275.993,487.358 275.923,487.337 275.853,487.325C275.783,487.313 275.718,487.307 275.657,487.307C275.478,487.307 275.321,487.34 275.186,487.405C275.051,487.47 274.939,487.558 274.849,487.669C274.76,487.78 274.693,487.909 274.649,488.058C274.605,488.207 274.583,488.365 274.583,488.532C274.583,488.698 274.606,488.856 274.651,489.005C274.697,489.154 274.764,489.284 274.854,489.397C274.943,489.509 275.056,489.598 275.191,489.665C275.326,489.732 275.484,489.765 275.667,489.765C275.83,489.765 275.981,489.736 276.117,489.679C276.254,489.621 276.354,489.527 276.418,489.397L276.427,489.397L276.427,489.715L276.814,489.715Z" style="fill:white;fill-rule:nonzero;"/>
                        <path d="M279.045,488.313L277.692,488.313C277.699,488.222 277.718,488.136 277.752,488.056C277.785,487.975 277.831,487.905 277.888,487.844C277.946,487.783 278.015,487.736 278.095,487.701C278.176,487.666 278.266,487.648 278.366,487.648C278.463,487.648 278.552,487.666 278.633,487.701C278.713,487.736 278.783,487.783 278.842,487.842C278.901,487.901 278.948,487.972 278.983,488.054C279.018,488.135 279.038,488.222 279.045,488.313ZM279.418,488.969L279.035,488.969C279.002,489.123 278.933,489.239 278.828,489.315C278.724,489.39 278.589,489.428 278.425,489.428C278.298,489.428 278.187,489.407 278.093,489.365C277.999,489.322 277.922,489.265 277.861,489.194C277.8,489.123 277.756,489.041 277.729,488.948C277.702,488.856 277.689,488.758 277.692,488.654L279.454,488.654C279.46,488.512 279.447,488.362 279.416,488.204C279.384,488.046 279.326,487.9 279.243,487.767C279.159,487.633 279.048,487.523 278.91,487.437C278.772,487.35 278.598,487.307 278.389,487.307C278.228,487.307 278.08,487.337 277.945,487.398C277.81,487.459 277.693,487.544 277.595,487.653C277.496,487.762 277.419,487.891 277.365,488.04C277.31,488.189 277.283,488.352 277.283,488.532C277.289,488.711 277.315,488.876 277.362,489.028C277.409,489.18 277.48,489.31 277.574,489.419C277.668,489.529 277.784,489.614 277.922,489.674C278.06,489.735 278.224,489.765 278.412,489.765C278.679,489.765 278.9,489.698 279.076,489.565C279.252,489.431 279.366,489.233 279.418,488.969Z" style="fill:white;fill-rule:nonzero;"/>
                        <path d="M279.855,487.362L279.855,489.715L280.242,489.715L280.242,488.386C280.242,488.28 280.256,488.182 280.285,488.092C280.314,488.003 280.357,487.925 280.415,487.858C280.473,487.791 280.545,487.739 280.631,487.703C280.718,487.667 280.82,487.648 280.938,487.648C281.087,487.648 281.204,487.691 281.289,487.776C281.374,487.861 281.416,487.976 281.416,488.122L281.416,489.715L281.803,489.715L281.803,488.167C281.803,488.04 281.791,487.924 281.765,487.819C281.739,487.714 281.694,487.624 281.63,487.548C281.567,487.472 281.483,487.413 281.38,487.371C281.277,487.328 281.148,487.307 280.993,487.307C280.644,487.307 280.389,487.45 280.228,487.735L280.219,487.735L280.219,487.362L279.855,487.362Z" style="fill:white;fill-rule:nonzero;"/>
                        <path d="M276.227,492.383L276.227,494.395L276.613,494.395L276.613,492.383L277.069,492.383L277.069,492.042L276.613,492.042L276.613,491.714C276.613,491.611 276.639,491.541 276.691,491.504C276.742,491.468 276.815,491.45 276.909,491.45C276.943,491.45 276.979,491.452 277.019,491.457C277.058,491.461 277.095,491.469 277.128,491.482L277.128,491.145C277.092,491.133 277.05,491.123 277.003,491.117C276.956,491.111 276.914,491.108 276.878,491.108C276.665,491.108 276.503,491.158 276.393,491.256C276.282,491.355 276.227,491.5 276.227,491.691L276.227,492.042L275.83,492.042L275.83,492.383L276.227,492.383Z" style="fill:white;fill-rule:nonzero;"/>
                        <path d="M277.401,492.042L277.401,494.395L277.788,494.395L277.788,493.348C277.788,493.196 277.803,493.062 277.834,492.945C277.864,492.828 277.912,492.729 277.979,492.647C278.046,492.565 278.134,492.503 278.243,492.46C278.353,492.418 278.485,492.397 278.639,492.397L278.639,491.987C278.43,491.981 278.257,492.023 278.12,492.114C277.984,492.205 277.868,492.347 277.774,492.538L277.765,492.538L277.765,492.042L277.401,492.042Z" style="fill:white;fill-rule:nonzero;"/>
                        <path d="M279.34,491.618L279.34,491.145L278.954,491.145L278.954,491.618L279.34,491.618ZM278.954,492.042L278.954,494.395L279.34,494.395L279.34,492.042L278.954,492.042Z" style="fill:white;fill-rule:nonzero;"/>
                        <path d="M281.576,492.993L280.224,492.993C280.23,492.902 280.249,492.816 280.283,492.736C280.316,492.655 280.362,492.585 280.419,492.524C280.477,492.463 280.546,492.416 280.627,492.381C280.707,492.346 280.797,492.328 280.897,492.328C280.995,492.328 281.083,492.346 281.164,492.381C281.244,492.416 281.314,492.463 281.373,492.522C281.432,492.581 281.479,492.652 281.514,492.734C281.549,492.815 281.57,492.902 281.576,492.993ZM281.949,493.649L281.567,493.649C281.533,493.803 281.464,493.919 281.36,493.995C281.255,494.07 281.121,494.108 280.957,494.108C280.829,494.108 280.718,494.087 280.624,494.045C280.53,494.002 280.453,493.945 280.392,493.874C280.331,493.803 280.287,493.721 280.26,493.628C280.233,493.536 280.221,493.438 280.224,493.334L281.986,493.334C281.992,493.192 281.979,493.042 281.947,492.884C281.915,492.726 281.857,492.58 281.774,492.447C281.69,492.313 281.58,492.203 281.441,492.117C281.303,492.03 281.13,491.987 280.92,491.987C280.759,491.987 280.611,492.017 280.476,492.078C280.341,492.139 280.224,492.224 280.126,492.333C280.027,492.442 279.951,492.571 279.896,492.72C279.841,492.869 279.814,493.032 279.814,493.212C279.82,493.391 279.847,493.556 279.894,493.708C279.941,493.86 280.011,493.99 280.105,494.099C280.199,494.209 280.315,494.294 280.454,494.354C280.592,494.415 280.755,494.445 280.943,494.445C281.21,494.445 281.432,494.379 281.608,494.245C281.784,494.111 281.897,493.913 281.949,493.649Z" style="fill:white;fill-rule:nonzero;"/>
                        <path d="M275.694,499.075L276.554,496.722L276.149,496.722L275.507,498.684L275.498,498.684L274.838,496.722L274.406,496.722L275.28,499.075L275.694,499.075Z" style="fill:white;fill-rule:nonzero;"/>
                        <path d="M277.319,496.298L277.319,495.825L276.932,495.825L276.932,496.298L277.319,496.298ZM276.932,496.722L276.932,499.075L277.319,499.075L277.319,496.722L276.932,496.722Z" style="fill:white;fill-rule:nonzero;"/>
                        <rect x="277.943" y="495.825" width="0.387" height="3.251" style="fill:white;fill-rule:nonzero;"/>
                        <path d="M279.34,496.298L279.34,495.825L278.954,495.825L278.954,496.298L279.34,496.298ZM279.34,499.371L279.34,496.722L278.954,496.722L278.954,499.307C278.954,499.429 278.938,499.513 278.908,499.56C278.878,499.607 278.82,499.631 278.735,499.631L278.653,499.631C278.641,499.631 278.63,499.63 278.619,499.628C278.608,499.627 278.595,499.625 278.58,499.622L278.58,499.954C278.641,499.966 278.706,499.972 278.776,499.972C278.949,499.972 279.086,499.924 279.188,499.829C279.29,499.733 279.34,499.581 279.34,499.371Z" style="fill:white;fill-rule:nonzero;"/>
                        <path d="M281.576,497.673L280.224,497.673C280.23,497.582 280.249,497.496 280.283,497.416C280.316,497.335 280.362,497.265 280.419,497.204C280.477,497.143 280.546,497.096 280.627,497.061C280.707,497.026 280.797,497.008 280.897,497.008C280.995,497.008 281.083,497.026 281.164,497.061C281.244,497.096 281.314,497.143 281.373,497.202C281.432,497.261 281.479,497.332 281.514,497.414C281.549,497.496 281.57,497.582 281.576,497.673ZM281.949,498.329L281.567,498.329C281.533,498.483 281.464,498.599 281.36,498.675C281.255,498.75 281.121,498.788 280.957,498.788C280.829,498.788 280.718,498.767 280.624,498.725C280.53,498.682 280.453,498.625 280.392,498.554C280.331,498.483 280.287,498.401 280.26,498.308C280.233,498.216 280.221,498.118 280.224,498.014L281.986,498.014C281.992,497.872 281.979,497.722 281.947,497.564C281.915,497.406 281.857,497.26 281.774,497.127C281.69,496.993 281.58,496.883 281.441,496.797C281.303,496.71 281.13,496.667 280.92,496.667C280.759,496.667 280.611,496.697 280.476,496.758C280.341,496.819 280.224,496.904 280.126,497.013C280.027,497.122 279.951,497.251 279.896,497.4C279.841,497.549 279.814,497.713 279.814,497.892C279.82,498.071 279.847,498.236 279.894,498.388C279.941,498.54 280.011,498.67 280.105,498.779C280.199,498.889 280.315,498.974 280.454,499.034C280.592,499.095 280.755,499.125 280.943,499.125C281.21,499.125 281.432,499.059 281.608,498.925C281.784,498.791 281.897,498.593 281.949,498.329Z" style="fill:white;fill-rule:nonzero;"/>
                    </g>
                </g>
            </g>
        </g>
    </g>
</svg>
